# xmcd CD database file
#
# Track frame offsets:
#	150
#	9493
#	46829
#	75159
#	104042
#	134436
#
# Disc length: 2417 seconds
#
# Revision: 0
# Processed by: cddbd v1.5.2PL0 Copyright (c) Steve Scherf et al.
# Submitted via: CDex 1.70beta2
#
DISCID=40096f06
DTITLE=Abdullah Ibrahim - Banyana
DYEAR=1976
DGENRE=Jazz
TTITLE0=Banyana (The Childrens of Africa)
TTITLE1=ASR
TTITLE2=Ishmael
TTITLE3=The Honey Bird
TTITLE4=The Dream
TTITLE5=Yukio Khalifa
EXTD=YEAR: 1976
EXTT0=
EXTT1=
EXTT2=
EXTT3=
EXTT4=
EXTT5=
PLAYORDER=
